# xmcd
#
# Track frame offsets: 
#        150
#        5532
#        11133
#        16462
#        23269
#        36863
#        71726
#        93089
#        103191
#        110221
#        117567
#        123934
#        130073
#        139197
#
# Disc length: 1921 seconds
#
# Revision: 0
# Processed by: cddbd v1.4PL0 Copyright (c) Steve Scherf et al.
# Submitted via: ExactAudioCopy v0.90b3
#
DISCID=ba077f0e
DTITLE=Loren Mazzacane Connors - Evangeline
DYEAR=1998
DGENRE=Blues
TTITLE0=Evangeline (vocal)
TTITLE1=Dance Acadia
TTITLE2=Ships
TTITLE3=The Burning of Grand Pre
TTITLE4=Two Paths
TTITLE5=The Bridegroom of Snow
TTITLE6=Voice of the Ocean, "Despair Not!"
TTITLE7=Once You Touched Me
TTITLE8=Jesuits
TTITLE9=Sister of Mercy
TTITLE10=His Room (in the almshouse)
TTITLE11=Oh, My Beloved
TTITLE12=Gabriel Dies
TTITLE13=Evangeline
EXTD=
EXTT0=
EXTT1=
EXTT2=
EXTT3=
EXTT4=
EXTT5=
EXTT6=
EXTT7=
EXTT8=
EXTT9=
EXTT10=
EXTT11=
EXTT12=
EXTT13=
PLAYORDER=
